<?xml version="1.0" encoding="UTF-8"?>
<svg id="Layer_1" data-name="Layer 1" xmlns="http://www.w3.org/2000/svg" viewBox="0 0 100 24">
  <defs>
    <style>
      .cls-1 {
        fill: #f15a22;
      }

      .cls-2 {
        fill: #231f20;
      }
    </style>
  </defs>
  <circle class="cls-1" cx="13.54" cy="7.26" r="2.5"/>
  <rect class="cls-1" x="18.98" y="3.98" width="4.33" height="16.11" rx="2.16" ry="2.16" transform="translate(8.85 -8.96) rotate(30)"/>
  <g>
    <path class="cls-2" d="M30.15,8.07h1.89l2.98,7.45,.26,.94,.25-.94,2.98-7.45h1.9l-4.3,10.56h-1.69l-4.29-10.56Z"/>
    <path class="cls-2" d="M42.27,5.69c-.22-.22-.33-.49-.33-.81s.11-.58,.33-.8,.51-.33,.88-.33,.66,.11,.89,.33,.34,.49,.34,.8-.11,.6-.34,.81-.52,.33-.9,.33-.65-.11-.87-.33Zm-.01,2.39h1.78v10.56h-1.78V8.07Z"/>
    <path class="cls-2" d="M49.08,18.19c-.78-.5-1.39-1.17-1.84-2.02-.45-.85-.67-1.79-.67-2.81s.22-1.95,.67-2.8c.45-.85,1.06-1.53,1.84-2.02s1.64-.75,2.58-.75,1.79,.23,2.54,.68,1.3,1.08,1.66,1.87v-2.27h1.71v10.56h-1.71v-2.25c-.36,.79-.91,1.41-1.66,1.86s-1.59,.68-2.53,.68-1.81-.25-2.59-.75Zm4.86-1.44c.57-.35,1.02-.82,1.35-1.41,.33-.6,.5-1.26,.5-1.98s-.17-1.38-.5-1.97c-.33-.6-.79-1.07-1.35-1.41-.57-.35-1.19-.52-1.86-.52s-1.31,.17-1.88,.5c-.57,.33-1.02,.8-1.36,1.39-.33,.59-.5,1.26-.5,2.01s.17,1.44,.5,2.03c.33,.59,.79,1.06,1.36,1.39s1.19,.5,1.87,.5,1.31-.17,1.88-.52Z"/>
    <path class="cls-2" d="M64.36,18.25c-.74-.46-1.29-1.08-1.67-1.86v2.25h-1.71V4.06h1.78v4.79l-.03,1.45c.23-.48,.55-.91,.95-1.29,.4-.38,.86-.68,1.39-.9s1.09-.33,1.68-.33c.97,0,1.86,.25,2.65,.75s1.42,1.17,1.87,2.02c.46,.85,.68,1.79,.68,2.8s-.23,1.96-.68,2.81c-.46,.85-1.08,1.53-1.87,2.02s-1.67,.75-2.63,.75c-.88,0-1.68-.23-2.42-.68Zm3.98-1.47c.57-.33,1.02-.8,1.36-1.39,.33-.6,.5-1.27,.5-2.03s-.17-1.41-.5-2.01c-.33-.59-.78-1.06-1.35-1.4-.57-.34-1.2-.51-1.88-.51s-1.3,.17-1.87,.52c-.57,.35-1.02,.82-1.35,1.42-.33,.6-.5,1.25-.5,1.97s.17,1.4,.5,2,.79,1.07,1.36,1.41,1.19,.51,1.86,.51,1.3-.17,1.87-.5Z"/>
    <path class="cls-2" d="M74.74,4.04h1.78v14.6h-1.78V4.04Z"/>
    <path class="cls-2" d="M80.06,18.53c-.22-.21-.33-.48-.33-.79s.11-.56,.33-.78,.5-.33,.84-.33,.62,.11,.84,.33,.33,.48,.33,.78-.11,.57-.33,.79-.5,.32-.84,.32-.62-.11-.84-.32Z"/>
  </g>
</svg>